<svg width="24" height="24" viewBox="0 0 24 24" fill="none" xmlns="http://www.w3.org/2000/svg">
<path d="M12.0219 19.9454C7.65027 19.9454 4.09836 16.3934 4.09836 12.0219C4.09836 7.65027 7.65027 4.09836 12.0219 4.09836C16.3934 4.09836 19.9454 7.65027 19.9454 12.0219C19.9454 16.3934 16.3934 19.9454 12.0219 19.9454ZM12.0219 5.73771C8.55738 5.73771 5.73771 8.55738 5.73771 12.0219C5.73771 15.4863 8.55738 18.306 12.0219 18.306C15.4863 18.306 18.306 15.4863 18.306 12.0219C18.306 8.55738 15.4863 5.73771 12.0219 5.73771ZM12.0219 24C11.4208 24 10.929 23.5519 10.929 22.9508V22.8634C10.929 22.2623 11.4208 21.7705 12.0219 21.7705C12.623 21.7705 13.1148 22.2623 13.1148 22.8634C13.1148 23.4645 12.623 24 12.0219 24ZM19.8251 20.918C19.541 20.918 19.2678 20.8087 19.0492 20.6011L18.9071 20.459C18.8059 20.3578 18.7257 20.2377 18.6709 20.1055C18.6161 19.9733 18.588 19.8316 18.588 19.6885C18.588 19.5454 18.6161 19.4037 18.6709 19.2715C18.7257 19.1393 18.8059 19.0192 18.9071 18.918C19.0083 18.8169 19.1284 18.7366 19.2606 18.6818C19.3928 18.6271 19.5345 18.5989 19.6776 18.5989C19.8207 18.5989 19.9624 18.6271 20.0946 18.6818C20.2268 18.7366 20.3469 18.8169 20.4481 18.918L20.5902 19.0601C20.742 19.2121 20.8455 19.4056 20.8876 19.6162C20.9297 19.8269 20.9085 20.0453 20.8267 20.244C20.7449 20.4426 20.6062 20.6126 20.4279 20.7326C20.2497 20.8525 20.04 20.9171 19.8251 20.918ZM4.21858 20.918C3.93443 20.918 3.6612 20.8087 3.44262 20.6011C3.34131 20.5 3.26093 20.3799 3.20608 20.2477C3.15124 20.1155 3.12301 19.9737 3.12301 19.8306C3.12301 19.6875 3.15124 19.5457 3.20608 19.4135C3.26093 19.2813 3.34131 19.1612 3.44262 19.0601L3.5847 18.918C3.68588 18.8169 3.806 18.7366 3.9382 18.6818C4.07041 18.6271 4.2121 18.5989 4.35519 18.5989C4.49829 18.5989 4.63998 18.6271 4.77218 18.6818C4.90438 18.7366 5.0245 18.8169 5.12568 18.918C5.22687 19.0192 5.30713 19.1393 5.36189 19.2715C5.41665 19.4037 5.44483 19.5454 5.44483 19.6885C5.44483 19.8316 5.41665 19.9733 5.36189 20.1055C5.30713 20.2377 5.22687 20.3578 5.12568 20.459L4.98361 20.6011C4.77596 20.8087 4.4918 20.918 4.21858 20.918ZM22.9508 13.1148H22.8634C22.2623 13.1148 21.7705 12.623 21.7705 12.0219C21.7705 11.4208 22.2623 10.929 22.8634 10.929C23.4645 10.929 24 11.4208 24 12.0219C24 12.623 23.5519 13.1148 22.9508 13.1148ZM1.18033 13.1148H1.0929C0.491803 13.1148 0 12.623 0 12.0219C0 11.4208 0.491803 10.929 1.0929 10.929C1.69399 10.929 2.22951 11.4208 2.22951 12.0219C2.22951 12.623 1.78142 13.1148 1.18033 13.1148ZM19.6831 5.45355C19.3989 5.45355 19.1257 5.34426 18.9071 5.13661C18.8058 5.0355 18.7254 4.91541 18.6706 4.7832C18.6157 4.65098 18.5875 4.50926 18.5875 4.36612C18.5875 4.22299 18.6157 4.08126 18.6706 3.94904C18.7254 3.81683 18.8058 3.69674 18.9071 3.59563L19.0492 3.45355C19.1504 3.35237 19.2705 3.27211 19.4027 3.21735C19.5349 3.16259 19.6766 3.1344 19.8197 3.1344C19.9628 3.1344 20.1045 3.16259 20.2367 3.21735C20.3689 3.27211 20.489 3.35237 20.5902 3.45355C20.6913 3.55473 20.7716 3.67486 20.8264 3.80706C20.8811 3.93926 20.9093 4.08095 20.9093 4.22404C20.9093 4.36714 20.8811 4.50883 20.8264 4.64103C20.7716 4.77323 20.6913 4.89335 20.5902 4.99454L20.4481 5.13661C20.2404 5.34426 19.9672 5.45355 19.6831 5.45355ZM4.36066 5.45355C4.0765 5.45355 3.80328 5.34426 3.5847 5.13661L3.44262 4.98361C3.34144 4.88242 3.26118 4.7623 3.20642 4.6301C3.15166 4.4979 3.12348 4.35621 3.12348 4.21311C3.12348 4.07002 3.15166 3.92833 3.20642 3.79613C3.26118 3.66393 3.34144 3.54381 3.44262 3.44262C3.54381 3.34144 3.66393 3.26118 3.79613 3.20642C3.92833 3.15166 4.07002 3.12348 4.21311 3.12348C4.35621 3.12348 4.4979 3.15166 4.6301 3.20642C4.7623 3.26118 4.88242 3.34144 4.98361 3.44262L5.12568 3.5847C5.55191 4.01093 5.55191 4.69945 5.12568 5.12568C4.91803 5.34426 4.63388 5.45355 4.36066 5.45355ZM12.0219 2.22951C11.4208 2.22951 10.929 1.78142 10.929 1.18033V1.0929C10.929 0.491803 11.4208 0 12.0219 0C12.623 0 13.1148 0.491803 13.1148 1.0929C13.1148 1.69399 12.623 2.22951 12.0219 2.22951Z" fill="#FBF7FF"/>
</svg>
